<?xml version="1.0" encoding="UTF-8"?><svg id="Layer_1" xmlns="http://www.w3.org/2000/svg" viewBox="0 0 182.46 182.46"><defs><style>.cls-1{fill:#fff;}.cls-2{fill:#ea172c;}.cls-3{fill:#232d63;}</style></defs><g><path class="cls-3" d="M80.11,171.32h-4.01l-1.27-.76-1.34-.83c-7.37-4.41-17.67-7.8-21.74-9.04l-14.24,.47-29.52,1.64L24.59,89.77c.32-1.97,1.16-3.84,2.41-5.42,1.82-2.26,4.43-3.77,7.34-4.2,3.01-.51,6.51-1.13,8.96-1.59,.91-2.37,4.11-9.01,12.43-13.13,.27-.19,1.4-1.13,2-3.38,.44-1.83,2.17-7.73,7.4-13.71l.26-.28,.2-.24,.23-.19,.27-.25c1-.89,1.93-1.89,2.61-2.72-.63-2.98-8.33-15.58-8.33-15.58l-.59-1.03-.1-1.18c-.14-1.79,.85-6.01,6.13-10.14,1.14-.9,7.97-5.56,15.65-5.56,11.04,0,18.41,8.68,21.14,12.44,2.74,3.79,7.35,10.38,10.52,23.27,1.35,4.41,1.6,11.06-1.45,17.26,.04,1.64-.08,3.51-.53,5.55,0,0,22.98-3.31,24.37-3.31,2.11,0,4.14,.38,6.06,1.13,2.78,1,6.6,3.51,9.34,9.68l.08,.16,.1,.23,9.17,22.75-4.26,4.11,5.65,13.99-4.87,3.01,6.66,16.35-5.53,2.25,7.56,18.12s-48.7,13.17-85.37,13.17h0Z"/><path class="cls-1" d="M158.1,154.36l-7.19-17.25,5.55-2.26-6.34-15.57,4.89-3.01-5.32-13.17c.2-.18,.37-.38,.55-.56l3.72-3.57-1.96-4.82c-.05-.19-.1-.36-.17-.52l-.03-.14-.06-.13-5.65-13.85v-.08l-.05-.09c-2.03-4.57-4.66-6.23-6.36-6.82-1.3-.53-2.68-.79-4.15-.79-1.01,0-1.86,.14-2.42,.25l-31,4.39c.21-.25,.32-.42,.32-.42,3.77-5,4.13-9.9,3.8-13.01,3.25-5.48,2.74-11.45,1.74-14.62-2.95-12.04-5.66-15.85-9.73-21.63l-.38-.53c-5.62-7.95-12.01-9.64-16.4-9.64-6.05,0-10.72,3.14-12.37,4.43-4.24,3.46-4.08,5.48-4.08,5.48,0,0,9.12,14.92,9.63,18.81l.06,.14c-.59,1.31-2.89,4.06-5.04,5.98l-.27,.25-.24,.25c-4.54,5.19-5.93,10.22-6.24,11.49-1.28,4.81-4.22,6.56-4.6,6.77l-.07,.04c-7.57,3.7-9.82,9.89-10.08,10.64-.46,1.43-.9,2.15-1.13,2.48-1.87,.42-7.87,1.49-11.85,2.16-1.61,.24-3.03,1.04-4.02,2.28-.71,.88-1.16,1.96-1.3,3.05l-14.71,66.33,22.45-1.3,14.85-.48c3.3,.97,15.28,4.72,23.78,9.82l1.36,.83h2.52c27.99,0,63.47-8.26,67.29-9.16,.38-.05,10.7-2.44,10.7-2.44Z"/><path class="cls-2" d="M148.61,149.68s-.66,1.26-2.28,1.44c0,0-38.36,9.26-67.11,9.07-10.74-6.44-26.1-10.71-26.1-10.71l-30.5,1.59,12.95-59.42s-.05-.43,.47-.5c0,0,10.51-1.78,12.78-2.37,0,0,2.88-.13,4.84-6.21,0,0,1.49-4.49,7.1-7.23,0,0,5.66-2.54,7.77-10.62,0,0,.87-4.39,4.95-9.04,0,0,7.01-6.23,7.05-10.18,.02-.22-.03-.46-.08-.73,2.44-1.26,3.42-3.37,3.42-5.67,.03-4.43-3.01-9.35-4.8-11.25-.46-.48-1.01-.76-1.56-.92-1.29-.33-2.6-.03-3.66,.33-.58,.19-1.06,.42-1.39,.56-.42-.74-.69-1.17-.69-1.17,0,0-.13-.31,0-.51,0,0,11.78-10.28,21.37,3.33,4.15,5.89,6.46,8.93,9.25,20.42,0,0,2.24,6.31-2.3,11.72,0,0,1.94,5.25-2.28,10.86,0,0-6.44,8.71-6.73,9.13,0,0-.5,.76-.19,1.42,0,0,.19,.64,1.67,.51l41.6-5.9s1.76-.48,3.52,.28c0,0,1.55,.36,3.05,3.74l5.65,13.83s.87,2.51-.87,3.46c0,0-1.2,.47-2.72,.71,0,0-.72,.11-.36,.85l4.47,11.25s.76,1.89-.55,3.12c0,0-.8,.65-1.52,.8,0,0-.69,.16-1.62,.16,0,0-.72,.04-.37,.71l5.18,13.1s.62,1.52-.27,2.51c0,0-.34,.53-1.62,.93,0,0-1.38,.42-2.35,.55,0,0-.51,.1-.23,.66l5,12.43s.77,1.82,.06,2.94ZM82.44,38.83c.08-3.7-2.69-8.34-4.13-9.86-.23-.25-.53-.41-.89-.51-1.28-.38-3.23,.34-4.07,.76-.05,.04-.09,.05-.11,.06,1.92,3.46,5.58,10.29,6.69,14.11,1.84-1.11,2.49-2.74,2.51-4.57Z"/><path class="cls-1" d="M84.72,119.96l-2.91,11.69c-.75,3.1-1.37,5.11-1.72,5.83-.94,1.92-1.95,2.74-3.45,2.99-.28,.04-.5,.06-.72,.06-.55-.03-.96-.16-1.25-.43-.41-.42-.64-.97-.61-1.84,0-.08,.06-.47,.19-1.02,.06-.39,.17-.88,.33-1.45l3.59-14.8-8.27,1.3-3.31,13.17c-.07,.31-.14,.62-.21,.92-.34,1.4-.43,2.58-.48,3.79-.06,2.15,.46,3.88,1.65,5.06,1.18,1.16,2.99,1.73,5.24,1.77,1.04,.04,2.2-.06,3.47-.27,4.23-.64,7.58-2.49,9.72-5.5,1.53-2.19,2.78-5.56,3.9-10.21l2.96-12.34-8.14,1.29Zm28.18-2.3c-1.03-1.07-2.4-1.65-4.04-1.67-.5,0-1.04,.04-1.61,.11-1.98,.3-3.82,1.22-5.46,2.68l.29-1.46-7.47,1.18-.1,.7c-.13,.93-6.47,26.47-6.47,26.47h.02l-1.51,5.76,9.52-6.98,.03-.14,2.3-9.18c1.06,.97,2.38,1.48,3.93,1.51,.47,0,.99-.04,1.5-.11,3.29-.5,6.08-2.23,8.05-4.97,1.14-1.63,1.93-3.45,2.37-5.43,.2-1,.32-2.07,.36-3.16,.08-2.23-.52-4.03-1.72-5.32Zm-7.63,11.04c-.83,1.12-1.72,1.68-2.91,1.88-.16,.01-.32,.04-.43,.04-.53-.03-.84-.18-1.16-.57-.37-.46-.55-1.06-.53-1.93h0c0-.32,.04-.62,.11-.95,.18-.79,.55-1.58,1.09-2.38,.92-1.25,1.8-1.82,2.92-2.01,.2-.04,.39-.05,.56-.05,.59,.03,.91,.18,1.17,.55,.25,.38,.41,1.03,.37,2,0,.37-.06,.75-.12,1.11-.19,.84-.53,1.6-1.06,2.33Zm-42.5-7.07l7.53-1.17,1.9-8.33c.06-.22,.09-.39,.13-.6,.27-1.25,.41-2.21,.45-2.99,.04-1.76-.41-3.22-1.42-4.22-.78-.8-1.84-1.21-3.07-1.22-.41,0-.81,.02-1.26,.09-1.69,.24-3.22,.92-4.54,1.96l1.97-8.17-7.41,1.16-6.13,25.35,7.37-1.16,2-8.23c.76-2.82,1.83-3.94,3.59-4.3,.23-.04,.42-.06,.58-.06,.67,.1,.73,.14,.77,.89,0,.2-.08,.74-.24,1.45-.05,.27-.11,.56-.2,.88l-2.02,8.68Zm77.34-18.46c.04-1.45-.76-2.56-2.12-3.17-.59-.26-1.7-.54-3.54-.94-.57-.1-.95-.25-1.15-.38-.08-.05-.13-.1-.15-.12,0,0,.02-.01,.02-.03,.04-.13,.04-.16,.31-.33,.28-.18,.8-.36,1.56-.46,.65-.1,1.3-.16,1.94-.14,.78,0,1.52,.1,2.29,.29l.79,.19,1.87-5.42-.74-.13c-1.02-.17-2-.24-2.93-.28-.96,0-1.9,.05-2.77,.19-2.3,.37-4.33,1.13-6.03,2.26-1.7,1.12-2.86,2.6-3.19,4.24-.05,.31-.1,.64-.1,.95-.08,1.69,.62,3.07,1.98,3.79,.62,.31,1.69,.57,3.4,.93,.53,.11,.91,.25,1.08,.37,.18,.15,.16,.19,.16,.2v.08c-.03,.08-.03,.14-.43,.37-.37,.2-1.04,.41-1.98,.56-.67,.11-1.32,.15-1.97,.14-.52-.03-1-.06-1.48-.15l-3.44,5.23,.75,.1c.69,.09,1.4,.13,2.12,.14,1.58,.03,3.26-.11,5.05-.41,2.36-.4,4.38-1.26,5.99-2.61,1.36-1.14,2.25-2.58,2.59-4.17,.09-.42,.13-.87,.15-1.31Zm-65.26,15.11c.79,.8,1.86,1.23,3.1,1.26h.03c.39,.01,.8-.03,1.23-.09,1.92-.29,3.71-1.17,5.31-2.53l-.27,1.37,6.97-1.11,.09-.69c.13-.94,.32-1.9,.53-2.91,.09-.43,.19-.85,.27-1.28l3.18-13.17-7.36,1.16-2,8.24c-.75,2.84-1.83,3.96-3.59,4.3-.22,.04-.4,.06-.57,.06-.67-.12-.74-.15-.8-.89,.02-.22,.1-.74,.24-1.46,.06-.27,.13-.55,.2-.87l2.05-8.69-7.55,1.18-1.91,8.33c-.06,.2-.1,.39-.13,.59-.25,1.25-.41,2.24-.44,3-.06,1.76,.39,3.19,1.39,4.19Zm48.07-22.65c-.71-.44-1.58-.66-2.54-.67-.46-.01-.94,.04-1.45,.1-2.21,.33-4.17,1.49-5.72,3.31-.31-.52-.78-.97-1.35-1.26-.61-.33-1.33-.5-2.07-.51-.35-.03-.72,.01-1.08,.06-1.7,.25-3.24,1-4.57,2.2l.27-1.16-6.79,1.07-.09,.71c-.12,.92-3.98,17.34-3.98,17.34l7.35-1.16,1.98-8.23c.32-1.31,.65-2.24,.97-2.76,.53-.94,1.02-1.29,1.77-1.4,.15-.04,.29-.04,.39-.04,.3,0,.39,.06,.46,.14,.08,.09,.15,.24,.14,.61-.01,.36-.08,.94-.25,1.68-.03,.17-.07,.34-.13,.52l-2.11,8.97,7.35-1.15,2-8.26c.31-1.28,.64-2.21,.94-2.75,.55-.93,1.03-1.27,1.77-1.41,.15-.01,.3-.01,.41-.01,.29,0,.39,.06,.46,.14,.07,.08,.16,.24,.13,.59,0,.37-.09,.97-.24,1.7-.03,.16-.07,.33-.13,.51l-2.11,8.97,7.36-1.16,2.09-8.88c.05-.16,.09-.32,.12-.47,.23-1.12,.38-2.24,.41-3.33,.06-1.81-.53-3.22-1.79-4.02Zm-89.76,13.64l7.87-1.25-6.13,24.4,8.78-5.76,4.98-19.83,5.51-.87,1.49-5.98-18.67,2.93-3.83,6.36Z"/></g><path class="cls-3" d="M166.4,154.55c-.04-2.23,1.76-4.05,4-4.07,2.21-.03,4.05,1.77,4.07,3.99,.03,2.24-1.76,4.05-3.98,4.08-2.23,.01-4.07-1.77-4.09-4.01Zm7.31-.08c-.03-1.82-1.49-3.26-3.31-3.23-1.81,.04-3.27,1.5-3.24,3.31,.03,1.83,1.52,3.27,3.33,3.24,1.81-.01,3.25-1.5,3.22-3.32Zm-1.24,2.24h-.99l-1-1.84h-.84v1.87h-.84l-.05-4.38h2.11c.35-.02,.83,0,1.17,.19,.39,.24,.52,.66,.53,1.12,.01,.8-.41,1.13-1.19,1.18l1.09,1.86Zm-1.57-2.49c.48,0,.81-.11,.81-.67-.02-.57-.63-.56-1.05-.56l-1.07,.03,.03,1.23,1.28-.03Z"/></svg>